<svg xmlns="http://www.w3.org/2000/svg" viewBox="0 0 582.05 752.02"><title>logo</title><path d="M487.83,694.14V714c0,24.85-19.61,45-43.81,45H91.6c-24.19,0-43.81-20.15-43.81-45V97c0-24.85,19.61-45,43.81-45H444c24.19,0,43.81,20.15,43.81,45V338.3" transform="translate(-25.29 -29.48)" style="fill:none;stroke:#353535;stroke-miterlimit:10;stroke-width:45px"/><path d="M189.15,418.76h0a56.78,56.78,0,0,1,80.3,0l116,116a6.31,6.31,0,0,1,0,8.92l-116,116a56.78,56.78,0,0,1-80.3,0h0a56.78,56.78,0,0,1,0-80.3l35.69-35.69a6.31,6.31,0,0,0,0-8.92l-35.69-35.69A56.78,56.78,0,0,1,189.15,418.76Z" transform="translate(-25.29 -29.48)" style="fill:#47c8f5"/><path d="M409.2,418.76h0a56.78,56.78,0,0,1,80.3,0l116,116a6.31,6.31,0,0,1,0,8.92l-116,116a56.78,56.78,0,0,1-80.3,0h0a56.78,56.78,0,0,1,0-80.3l35.69-35.69a6.31,6.31,0,0,0,0-8.92L409.2,499.06A56.78,56.78,0,0,1,409.2,418.76Z" transform="translate(-25.29 -29.48)" style="fill:#47c8f5"/><path d="M189.15,392.88h0a56.78,56.78,0,0,1,80.3,0l116,116a6.31,6.31,0,0,1,0,8.92l-116,116a56.78,56.78,0,0,1-80.3,0h0a56.78,56.78,0,0,1,0-80.3l35.69-35.69a6.31,6.31,0,0,0,0-8.92l-35.69-35.69A56.78,56.78,0,0,1,189.15,392.88Z" transform="translate(-25.29 -29.48)" style="fill:#d8e140"/><path d="M409.2,392.88h0a56.78,56.78,0,0,1,80.3,0l116,116a6.31,6.31,0,0,1,0,8.92l-116,116a56.78,56.78,0,0,1-80.3,0h0a56.78,56.78,0,0,1,0-80.3l35.69-35.69a6.31,6.31,0,0,0,0-8.92L409.2,473.18A56.78,56.78,0,0,1,409.2,392.88Z" transform="translate(-25.29 -29.48)" style="fill:#d8e140"/><path d="M184,374.09h0a56.78,56.78,0,0,1,80.3,0l116,116a6.31,6.31,0,0,1,0,8.92l-116,116a56.78,56.78,0,0,1-80.3,0h0a56.78,56.78,0,0,1,0-80.3L219.67,499a6.31,6.31,0,0,0,0-8.92L184,454.39A56.78,56.78,0,0,1,184,374.09Z" transform="translate(-25.29 -29.48)" style="fill:#ed4f50"/><path d="M404,374.09h0a56.78,56.78,0,0,1,80.3,0l116,116a6.31,6.31,0,0,1,0,8.92l-116,116a56.78,56.78,0,0,1-80.3,0h0a56.78,56.78,0,0,1,0-80.3L439.71,499a6.31,6.31,0,0,0,0-8.92L404,454.39A56.78,56.78,0,0,1,404,374.09Z" transform="translate(-25.29 -29.48)" style="fill:#ed4f50"/></svg>