<svg xmlns="http://www.w3.org/2000/svg" viewBox="0 0 601.7 436.02"><title>logo</title><path d="M36.12,179h0a77.65,77.65,0,0,1,109.82,0L304.56,337.63a8.63,8.63,0,0,1,0,12.2L145.94,508.45a77.65,77.65,0,0,1-109.82,0h0a77.65,77.65,0,0,1,0-109.82l48.81-48.81a8.63,8.63,0,0,0,0-12.2L36.12,288.82A77.65,77.65,0,0,1,36.12,179Z" transform="translate(-6.3 -95.18)" style="fill:#47c8f5"/><path d="M337,179h0a77.65,77.65,0,0,1,109.82,0L605.47,337.63a8.63,8.63,0,0,1,0,12.2L446.85,508.45a77.65,77.65,0,0,1-109.82,0h0a77.65,77.65,0,0,1,0-109.82l48.81-48.81a8.63,8.63,0,0,0,0-12.2L337,288.82A77.65,77.65,0,0,1,337,179Z" transform="translate(-6.3 -95.18)" style="fill:#47c8f5"/><path d="M36.12,143.61h0a77.65,77.65,0,0,1,109.82,0L304.56,302.24a8.63,8.63,0,0,1,0,12.2L145.94,473.06a77.65,77.65,0,0,1-109.82,0h0a77.65,77.65,0,0,1,0-109.82l48.81-48.81a8.63,8.63,0,0,0,0-12.2L36.12,253.43A77.65,77.65,0,0,1,36.12,143.61Z" transform="translate(-6.3 -95.18)" style="fill:#d8e140"/><path d="M337,143.61h0a77.65,77.65,0,0,1,109.82,0L605.47,302.24a8.63,8.63,0,0,1,0,12.2L446.85,473.06a77.65,77.65,0,0,1-109.82,0h0a77.65,77.65,0,0,1,0-109.82l48.81-48.81a8.63,8.63,0,0,0,0-12.2L337,253.43A77.65,77.65,0,0,1,337,143.61Z" transform="translate(-6.3 -95.18)" style="fill:#d8e140"/><path d="M29,117.92h0a77.65,77.65,0,0,1,109.82,0L297.48,276.54a8.63,8.63,0,0,1,0,12.2L138.86,447.37a77.65,77.65,0,0,1-109.82,0h0a77.65,77.65,0,0,1,0-109.82l48.81-48.81a8.63,8.63,0,0,0,0-12.2L29,227.74A77.65,77.65,0,0,1,29,117.92Z" transform="translate(-6.3 -95.18)" style="fill:#ed4f50"/><path d="M330,117.92h0a77.65,77.65,0,0,1,109.82,0L598.39,276.54a8.63,8.63,0,0,1,0,12.2L439.77,447.37a77.65,77.65,0,0,1-109.82,0h0a77.65,77.65,0,0,1,0-109.82l48.81-48.81a8.63,8.63,0,0,0,0-12.2L330,227.74A77.65,77.65,0,0,1,330,117.92Z" transform="translate(-6.3 -95.18)" style="fill:#ed4f50"/></svg>