<svg viewBox="0 0 601.7 436.02" xmlns="http://www.w3.org/2000/svg"><g transform="translate(-6.3 -95.18)"><path d="m36.12 179a77.65 77.65 0 0 1 109.82 0l158.62 158.63a8.63 8.63 0 0 1 0 12.2l-158.62 158.62a77.65 77.65 0 0 1 -109.82 0 77.65 77.65 0 0 1 0-109.82l48.81-48.81a8.63 8.63 0 0 0 0-12.2l-48.81-48.8a77.65 77.65 0 0 1 0-109.82z" fill="#47c8f5"/><path d="m337 179a77.65 77.65 0 0 1 109.82 0l158.65 158.63a8.63 8.63 0 0 1 0 12.2l-158.62 158.62a77.65 77.65 0 0 1 -109.82 0 77.65 77.65 0 0 1 0-109.82l48.81-48.81a8.63 8.63 0 0 0 0-12.2l-48.84-48.8a77.65 77.65 0 0 1 0-109.82z" fill="#47c8f5"/><path d="m36.12 143.61a77.65 77.65 0 0 1 109.82 0l158.62 158.63a8.63 8.63 0 0 1 0 12.2l-158.62 158.62a77.65 77.65 0 0 1 -109.82 0 77.65 77.65 0 0 1 0-109.82l48.81-48.81a8.63 8.63 0 0 0 0-12.2l-48.81-48.8a77.65 77.65 0 0 1 0-109.82z" fill="#d8e140"/><path d="m337 143.61a77.65 77.65 0 0 1 109.82 0l158.65 158.63a8.63 8.63 0 0 1 0 12.2l-158.62 158.62a77.65 77.65 0 0 1 -109.82 0 77.65 77.65 0 0 1 0-109.82l48.81-48.81a8.63 8.63 0 0 0 0-12.2l-48.84-48.8a77.65 77.65 0 0 1 0-109.82z" fill="#d8e140"/><g fill="#ed4f50"><path d="m29 117.92a77.65 77.65 0 0 1 109.82 0l158.66 158.62a8.63 8.63 0 0 1 0 12.2l-158.62 158.63a77.65 77.65 0 0 1 -109.82 0 77.65 77.65 0 0 1 0-109.82l48.81-48.81a8.63 8.63 0 0 0 0-12.2l-48.85-48.8a77.65 77.65 0 0 1 0-109.82z"/><path d="m330 117.92a77.65 77.65 0 0 1 109.82 0l158.57 158.62a8.63 8.63 0 0 1 0 12.2l-158.62 158.63a77.65 77.65 0 0 1 -109.82 0 77.65 77.65 0 0 1 0-109.82l48.81-48.81a8.63 8.63 0 0 0 0-12.2l-48.76-48.8a77.65 77.65 0 0 1 0-109.82z"/></g></g></svg>