<svg viewBox="0 0 760.5 599.88" xmlns="http://www.w3.org/2000/svg"><path d="m113.67 178.12h468.42v308.09h-468.42z" fill="#f2f2f2"/><path d="m.5.5h759.21v598.88h-759.21z" fill="none" stroke="#3f3d56" stroke-miterlimit="10"/><path d="m1.29 35.08h759.21" fill="none" stroke="#3f3d56" stroke-miterlimit="10"/><circle cx="16.22" cy="19.36" fill="#f86b75" r="7.86"/><circle cx="38.22" cy="19.36" fill="#fad375" r="7.86"/><circle cx="60.23" cy="19.36" fill="#8bcc55" r="7.86"/><g fill="none" stroke="#3f3d56" stroke-miterlimit="10"><circle cx="19.36" cy="14.65" r="7.86"/><circle cx="41.37" cy="14.65" r="7.86"/><circle cx="63.37" cy="14.65" r="7.86"/><path d="m150.61 144.33h468.42v308.09h-468.42z"/></g><path d="m524.72 520h86.45v23.58h-86.45z" fill="#46c8f5"/><path d="m532.58 513.72h86.45v23.58h-86.45z" fill="none" stroke="#3f3d56" stroke-miterlimit="10"/><path d="m389.65 324.38-36.17-37.28a8.22 8.22 0 0 0 -6-2.43h-.11a8.22 8.22 0 0 0 -6 2.43l-36.17 37.27a8 8 0 0 0 -.38 11.28l.38.38a8.93 8.93 0 0 0 12.2 0l21.43-22.4v57.77a8.65 8.65 0 0 0 17.27 0v-57.76l21.35 22.36a8.93 8.93 0 0 0 12.2 0 8 8 0 0 0 .38-11.28z" fill="#46c8f5" transform="translate(.5)"/></svg>